<svg width="64" height="64" viewBox="0 0 64 64" fill="none" xmlns="http://www.w3.org/2000/svg">
  <circle cx="32" cy="32" r="32" fill="#FE9A00"/>
  <path d="M30.7288 6.1191C30.8456 5.88302 31.0262 5.68432 31.25 5.54538C31.4738 5.40644 31.7318 5.33284 31.9952 5.33284C32.2586 5.33284 32.5166 5.40644 32.7404 5.54538C32.9644 5.68432 33.145 5.88302 33.2618 6.1191L39.4208 18.5946C39.8266 19.4157 40.4256 20.1262 41.1662 20.6648C41.9068 21.2036 42.7674 21.5544 43.6736 21.6874L57.4476 23.7032C57.7086 23.741 57.9538 23.851 58.1554 24.021C58.357 24.191 58.5072 24.4138 58.5888 24.6646C58.6704 24.9154 58.68 25.184 58.617 25.44C58.554 25.696 58.4202 25.9294 58.2314 26.1134L48.2702 35.8134C47.6132 36.4536 47.1218 37.2438 46.838 38.116C46.5542 38.9884 46.4866 39.9164 46.6412 40.8206L48.9928 54.5252C49.0388 54.7862 49.0106 55.0548 48.9112 55.3004C48.8118 55.546 48.6452 55.7588 48.4316 55.9144C48.2174 56.07 47.9636 56.1624 47.6992 56.1808C47.4348 56.1992 47.171 56.1428 46.937 56.0184L34.6242 49.5446C33.813 49.1186 32.911 48.8962 31.994 48.8962C31.0776 48.8962 30.1756 49.1186 29.3644 49.5446L17.0535 56.0184C16.8197 56.1422 16.5565 56.1978 16.2919 56.1790C16.0273 56.1604 15.7732 56.068 15.5589 55.9124C15.3446 55.7568 15.1778 55.5444 15.0782 55.2992C14.9786 55.054 14.9502 54.786 14.9961 54.5252L17.3494 40.8234C17.5046 39.9188 17.437 38.99 17.1532 38.1172C16.8694 37.2444 16.3779 36.4538 15.7203 35.8134L5.75916 26.1162C5.56888 25.9322 5.43446 25.6986 5.37086 25.4418C5.30726 25.185 5.31638 24.9158 5.39738 24.6644C5.47838 24.4131 5.6286 24.1897 5.83064 24.0194C6.03268 23.8491 6.27848 23.7391 6.53904 23.7018L20.3144 21.6874C21.2216 21.555 22.0832 21.205 22.8248 20.6662C23.5666 20.1274 24.1662 19.4166 24.5724 18.5946L30.7288 6.1191Z" stroke="white" stroke-width="5.33254" stroke-linecap="round" stroke-linejoin="round"/>
</svg>