<svg width="64" height="64" viewBox="0 0 64 64" fill="none" xmlns="http://www.w3.org/2000/svg">
  <circle cx="32" cy="32" r="32" fill="#FE9A00"/>
  <path d="M53.3254 34.6616C53.3254 47.993 43.9936 54.6586 32.9018 58.5248C32.321 58.7216 31.69 58.7122 31.1154 58.498C19.997 54.6586 10.6651 47.993 10.6651 34.6616V15.9976C10.6651 15.2905 10.946 14.6123 11.446 14.1123C11.9461 13.6123 12.6242 13.3314 13.3314 13.3314C18.6639 13.3314 25.3296 10.1318 29.969 6.0791C30.5338 5.5965 31.2524 5.33134 31.9952 5.33134C32.7382 5.33134 33.4568 5.5965 34.0216 6.0791C38.6876 10.1585 45.3266 13.3314 50.6592 13.3314C51.3664 13.3314 52.0446 13.6123 52.5446 14.1123C53.0446 14.6123 53.3254 15.2905 53.3254 15.9976V34.6616Z" stroke="white" stroke-width="5.33254" stroke-linecap="round" stroke-linejoin="round"/>
  <path d="M23.9965 31.9952L29.329 37.3278L39.9942 26.6628" stroke="white" stroke-width="5.33254" stroke-linecap="round" stroke-linejoin="round"/>
</svg>